<svg xmlns="http://www.w3.org/2000/svg" width="232" height="39" viewBox="0 0 61.383 10.319">
  <path d="M7.295 10.319a4.11 4.11 0 0 1-4.109-4.11 3.09 3.09 0 1 1 0-6.177h12.417a2.358 2.358 0 1 1-.565 4.645 2.445 2.445 0 0 1-3.765 2.568 4.11 4.11 0 0 1-3.978 3.074zm.003-.9l.27-.012.276-.036.27-.06.243-.072.255-.102.217-.108.236-.143.211-.153.192-.165.182-.18.172-.204.153-.211.135-.225.117-.233.096-.24.09-.294.345-1.13.996.635.12.075.11.059.097.045.105.036.11.03.112.022.138.015.095.005.168-.01.168-.025.127-.033.16-.06.124-.06.127-.075.126-.094.1-.09.107-.12.084-.111.083-.137.06-.124.057-.152.036-.142.024-.155.007-.153-.01-.18-.04-.22-.22-1.275 1.272.235.218.042.195.012.138-.007.153-.024.135-.035.12-.045.144-.067.108-.068.121-.09.1-.09.09-.1.09-.123.068-.108.07-.144.046-.12.033-.135.024-.153.006-.15-.006-.144-.024-.155-.033-.127-.05-.135-.064-.135-.07-.111-.09-.12-.09-.1-.104-.095-.111-.083-.114-.07-.146-.07-.12-.044-.135-.035-.15-.022-.168-.01H3.205l-.247.013-.21.033-.213.054-.2.072-.194.096-.18.108-.165.124-.158.143-.144.156-.126.17-.108.176-.09.19-.075.203-.054.215-.033.21-.012.228.012.225.033.213.056.214.07.195.095.195.11.18.122.165.144.16.156.142.165.124.182.11.195.094.195.07.216.056.211.03.273.015.83.045.024.831.006.195.01.149.023.174.001.015.026.138.037.165.003.009.032.112.004.012.054.162.06.147.062.141.069.134.066.117.009.012.087.135.094.135.008.01.069.086.12.138.009.01.09.098.097.09.01.009.131.114.008.007.09.07.006.005.142.1.128.082.012.009.117.066.132.067.15.068.123.05.015.004.165.057.01.003.125.036.17.039.013.003.14.024.15.02.163.01z" fill="#009a17"/>
  <path d="M56.747 5.556a2.535 2.535 0 0 1 .21-.819 2.325 2.325 0 0 1 .447-.667 2 2 0 0 1 .66-.447c.26-.108.549-.162.864-.162.343 0 .648.057.915.17.273.109.505.268.696.478.19.21.336.465.438.762.102.298.151.63.151 1v.255a.246.246 0 0 1-.075.18.24.24 0 0 1-.18.078h-3.279v.059c.014.43.144.763.39.999.255.23.57.343.945.343.351 0 .61-.048.78-.142a1.69 1.69 0 0 0 .43-.335.552.552 0 0 1 .134-.105.405.405 0 0 1 .17-.027h.285a.29.29 0 0 1 .192.075.183.183 0 0 1 .066.18 1.053 1.053 0 0 1-.162.383c-.09.133-.22.26-.39.38a2.418 2.418 0 0 1-.63.296c-.246.075-.54.114-.876.114-.317 0-.602-.054-.855-.162a2.216 2.216 0 0 1-.67-.457 2.415 2.415 0 0 1-.446-.686 2.784 2.784 0 0 1-.21-.867 4.275 4.275 0 0 1 0-.876zm.847.03h2.678v-.03c0-.387-.123-.694-.372-.924-.24-.235-.564-.352-.972-.352a1.353 1.353 0 0 0-.513.096 1.185 1.185 0 0 0-.42.255 1.175 1.175 0 0 0-.285.402 1.416 1.416 0 0 0-.116.523zm-2.04 2.664a.246.246 0 0 1-.075.18.247.247 0 0 1-.18.078h-.354a.243.243 0 0 1-.18-.076.249.249 0 0 1-.075-.18v-6.25c0-.071.026-.131.075-.18a.243.243 0 0 1 .18-.077h.353c.07 0 .13.025.18.075a.249.249 0 0 1 .076.18zm-6.427-.99c0-.255.05-.477.151-.667a1.479 1.479 0 0 1 .42-.486 2.32 2.32 0 0 1 .618-.324 4.88 4.88 0 0 1 .762-.19l1.344-.22v-.12c0-.324-.108-.565-.324-.724a1.24 1.24 0 0 0-.79-.248c-.28 0-.492.051-.64.153a1.538 1.538 0 0 0-.36.36.338.338 0 0 1-.125.105.443.443 0 0 1-.18.03h-.285a.288.288 0 0 1-.192-.075.225.225 0 0 1-.066-.183.942.942 0 0 1 .162-.427c.102-.146.235-.276.4-.39a2.31 2.31 0 0 1 .58-.278 2.413 2.413 0 0 1 1.496.01c.248.083.458.203.63.36.177.161.314.358.408.593.102.236.153.506.153.81v2.903a.246.246 0 0 1-.075.18.247.247 0 0 1-.18.078h-.355a.243.243 0 0 1-.18-.077.249.249 0 0 1-.075-.18v-.391a.936.936 0 0 1-.269.324c-.12.09-.26.165-.42.228a2.303 2.303 0 0 1-.484.142c-.165.032-.32.048-.465.048-.25 0-.479-.034-.689-.105a1.792 1.792 0 0 1-.523-.276 1.343 1.343 0 0 1-.333-.429 1.257 1.257 0 0 1-.114-.532zm1.752.524c.23 0 .44-.035.63-.105a1.474 1.474 0 0 0 .484-.285 1.381 1.381 0 0 0 .43-1.02v-.24l-1.126.183c-.399.064-.717.165-.952.304-.234.14-.353.321-.353.543 0 .07.015.14.048.21a.617.617 0 0 0 .153.2.768.768 0 0 0 .267.153c.114.037.255.057.42.057zm-6.045-1.42c.025.256.08.47.162.649.09.177.195.322.315.438a1.268 1.268 0 0 0 .42.255c.15.05.306.075.465.075.306 0 .565-.056.78-.168a1.163 1.163 0 0 0 .505-.572.474.474 0 0 1 .135-.2.29.29 0 0 1 .18-.058h.285c.07 0 .13.026.18.075a.205.205 0 0 1 .078.18 1.245 1.245 0 0 1-.153.507c-.09.179-.225.345-.41.506a2.412 2.412 0 0 1-1.582.552c-.348 0-.66-.057-.933-.171a2.12 2.12 0 0 1-.685-.467 2.236 2.236 0 0 1-.438-.696 2.793 2.793 0 0 1-.171-.856 13.692 13.692 0 0 1-.02-.372c0-.153.006-.284.02-.39a3.18 3.18 0 0 1 .19-.858c.108-.267.255-.5.438-.696.185-.195.41-.351.675-.465a2.32 2.32 0 0 1 .926-.173 2.374 2.374 0 0 1 1.58.563c.185.151.322.32.41.504a1.179 1.179 0 0 1 .153.495.207.207 0 0 1-.075.18.252.252 0 0 1-.18.075h-.288a.344.344 0 0 1-.18-.045.566.566 0 0 1-.135-.21 1.153 1.153 0 0 0-.505-.572 1.645 1.645 0 0 0-1.257-.085 1.175 1.175 0 0 0-.42.247c-.12.116-.225.261-.314.438a1.861 1.861 0 0 0-.15.648 3.719 3.719 0 0 0 0 .668zm-2.637.772a.423.423 0 0 0-.105-.296.741.741 0 0 0-.296-.21 3.243 3.243 0 0 0-.514-.16 18.237 18.237 0 0 0-.714-.162c-.515-.108-.876-.285-1.086-.534a1.377 1.377 0 0 1-.305-.885 1.292 1.292 0 0 1 .46-1c.15-.136.341-.24.57-.316a2.655 2.655 0 0 1 .818-.114c.31 0 .58.035.81.105.234.07.43.16.59.267a1.245 1.245 0 0 1 .361.353.67.67 0 0 1 .135.352.205.205 0 0 1-.078.18.246.246 0 0 1-.18.075h-.315a.716.716 0 0 1-.142-.018.36.36 0 0 1-.143-.114.898.898 0 0 0-.372-.267 1.577 1.577 0 0 0-.666-.114 1.405 1.405 0 0 0-.715.162.501.501 0 0 0-.266.449c0 .12.026.217.075.294a.67.67 0 0 0 .248.19c.115.05.265.098.45.144l.705.162c.29.063.535.146.732.248.198.094.355.205.475.333.12.12.207.255.258.41.051.145.075.3.075.464 0 .19-.046.375-.142.554a1.374 1.374 0 0 1-.39.468c-.171.133-.381.24-.63.322-.24.083-.516.125-.828.125a2.716 2.716 0 0 1-1.448-.39 1.686 1.686 0 0 1-.4-.363.771.771 0 0 1-.143-.37.216.216 0 0 1 .068-.18.254.254 0 0 1 .19-.079h.342c.04 0 .084.006.135.02.051.006.098.04.141.105a.984.984 0 0 0 .42.324c.179.075.41.114.695.114a1.744 1.744 0 0 0 .772-.183.813.813 0 0 0 .257-.198.429.429 0 0 0 .096-.267zm-6.17-3.677c.3 0 .578.054.83.162.26.102.486.25.675.447.19.19.343.425.457.705.114.28.18.594.201.944a5.03 5.03 0 0 1 0 .62 2.919 2.919 0 0 1-.2.941 2.212 2.212 0 0 1-.458.716 1.995 1.995 0 0 1-.675.456 2.205 2.205 0 0 1-.83.153c-.387 0-.697-.063-.933-.19a1.702 1.702 0 0 1-.543-.458v.295a.246.246 0 0 1-.075.18.24.24 0 0 1-.18.078h-.355a.243.243 0 0 1-.18-.076.249.249 0 0 1-.075-.18v-6.25c0-.071.025-.131.075-.18a.246.246 0 0 1 .18-.077h.352c.07 0 .13.025.182.075a.25.25 0 0 1 .075.18v2.107c.12-.16.3-.306.534-.438.235-.14.55-.21.945-.21zm-1.476 2.982c.033.413.173.74.42.981a1.32 1.32 0 0 0 .96.36c.42 0 .749-.133.983-.399.24-.265.376-.628.41-1.086a7.88 7.88 0 0 0 0-.532c-.032-.458-.169-.82-.41-1.086-.234-.267-.561-.4-.981-.4-.4 0-.72.124-.963.371-.24.24-.38.585-.42 1.038a3.184 3.184 0 0 0-.018.381c0 .152.006.276.02.372zM30.227 3.46c.343 0 .648.054.915.162.267.102.495.245.685.43.19.184.34.409.447.674a2.675 2.675 0 0 1 .22 1.068v.495a3.06 3.06 0 0 1-.22 1.058A1.962 1.962 0 0 1 31.14 8.45c-.265.102-.57.153-.915.153-.342 0-.645-.051-.913-.153a2.13 2.13 0 0 1-.686-.438 2.094 2.094 0 0 1-.457-.666 2.825 2.825 0 0 1-.2-.867l-.02-.19v-.496a3.82 3.82 0 0 1 .02-.21 2.805 2.805 0 0 1 .2-.856c.115-.267.268-.492.457-.677a1.995 1.995 0 0 1 .686-.429c.267-.108.573-.162.915-.162zm1.39 2.97a3.08 3.08 0 0 0 .02-.39 3.44 3.44 0 0 0-.02-.408 2.126 2.126 0 0 0-.124-.534 1.287 1.287 0 0 0-.266-.429 1.25 1.25 0 0 0-.42-.285 1.478 1.478 0 0 0-.58-.105 1.49 1.49 0 0 0-.582.105 1.233 1.233 0 0 0-.686.714 2.028 2.028 0 0 0-.123.534 3.67 3.67 0 0 0-.02.41c0 .151.007.282.02.39.021.19.06.367.123.534a1.23 1.23 0 0 0 .687.714c.165.07.36.105.58.105a1.478 1.478 0 0 0 .581-.105 1.25 1.25 0 0 0 .42-.285 1.287 1.287 0 0 0 .266-.43c.064-.164.105-.343.124-.533zm-7.53-3.11c.114 0 .192.034.237.104a.69.69 0 0 1 .086.171l1.047 3.773.972-5.268c.02-.095.058-.162.114-.2a.327.327 0 0 1 .181-.057h.381a.18.18 0 0 1 .143.066.18.18 0 0 1 .067.143c0 .02-.003.045-.01.075l-1.17 5.887a.95.95 0 0 1-.144.372c-.063.083-.171.125-.324.125h-.381c-.146 0-.255-.045-.324-.135a1.05 1.05 0 0 1-.162-.36l-.876-3.183-.876 3.18a1.067 1.067 0 0 1-.162.364c-.07.09-.177.134-.324.134h-.381c-.152 0-.26-.042-.324-.125a.993.993 0 0 1-.143-.372l-1.17-5.886a.372.372 0 0 1-.01-.075.195.195 0 0 1 .057-.144.208.208 0 0 1 .151-.066h.381c.065 0 .125.02.182.057.057.038.096.105.114.2l.972 5.268 1.047-3.773a.687.687 0 0 1 .087-.17c.045-.071.123-.106.237-.106z"/>
</svg>
